<?xml version="1.0" standalone="no"?>
<!DOCTYPE svg PUBLIC "-//W3C//DTD SVG 20010904//EN"
 "http://www.w3.org/TR/2001/REC-SVG-20010904/DTD/svg10.dtd">
<svg version="1.0" xmlns="http://www.w3.org/2000/svg"
 width="2671.000000pt" height="2671.000000pt" viewBox="0 0 2671.000000 2671.000000"
 preserveAspectRatio="xMidYMid meet">
<metadata>
Created by potrace 1.11, written by Peter Selinger 2001-2013
</metadata>
<g transform="translate(0.000000,2671.000000) scale(0.100000,-0.100000)"
fill="#000000" stroke="none">
<path d="M10307 22679 c-1157 -63 -2282 -433 -3267 -1074 -874 -568 -1615
-1356 -2150 -2285 -87 -152 -279 -540 -349 -707 -356 -847 -541 -1811 -518
-2706 5 -217 5 -218 -16 -227 -12 -5 -96 -38 -187 -74 -594 -232 -1139 -557
-1655 -985 -183 -152 -582 -549 -729 -726 -777 -934 -1242 -2010 -1376 -3184
-83 -727 -33 -1464 147 -2176 326 -1291 1094 -2454 2164 -3277 876 -674 1925
-1090 3039 -1207 293 -31 550 -32 8400 -29 7430 3 7914 5 8059 21 841 95 1538
323 2214 726 591 352 1128 835 1542 1386 537 715 883 1550 1009 2437 41 283
51 435 51 763 0 328 -10 480 -51 763 -198 1388 -939 2643 -2064 3494 -586 443
-1277 767 -1987 933 -80 19 -147 36 -150 38 -2 3 19 72 46 154 479 1435 124
3000 -924 4072 -233 239 -425 397 -682 564 -515 336 -1054 534 -1683 619 -144
20 -209 22 -500 22 -291 0 -356 -2 -500 -22 -610 -83 -1152 -278 -1639 -589
-46 -30 -84 -53 -85 -51 -1 2 -28 47 -60 101 -442 750 -1118 1482 -1851 2002
-1243 883 -2717 1307 -4248 1224z m1935 -4971 c37 -14 94 -41 125 -59 83 -48
4573 -4538 4622 -4621 18 -31 44 -89 59 -130 23 -64 26 -88 27 -203 0 -110 -4
-141 -23 -200 -58 -175 -188 -328 -342 -404 -152 -74 -74 -71 -1631 -71
l-1389 0 -3 -2392 c-2 -2219 -4 -2397 -19 -2448 -55 -177 -191 -341 -345 -418
-154 -76 -93 -73 -1333 -70 l-1105 3 -65 22 c-100 35 -188 91 -272 174 -62 63
-85 94 -121 170 -25 52 -51 117 -58 144 -10 40 -14 533 -16 2432 l-3 2383
-1423 3 c-1303 2 -1427 4 -1477 20 -270 83 -463 318 -486 593 -11 140 20 268
97 402 26 43 557 581 2239 2266 1213 1214 2237 2236 2277 2270 80 69 170 119
265 147 97 29 308 22 400 -13z"/>
</g>
</svg>
